<svg width="16" height="16" viewBox="0 0 16 16" fill="none" xmlns="http://www.w3.org/2000/svg">
<g clip-path="url(#clip0_402_6224)">
<path fill-rule="evenodd" clip-rule="evenodd" d="M8 0.197266C3.582 0.197266 0 3.7786 0 8.19727C0 11.7319 2.292 14.7306 5.47067 15.7886C5.87067 15.8626 6.01733 15.6153 6.01733 15.4039C6.01733 15.2133 6.01 14.5833 6.00667 13.9146C3.78133 14.3986 3.31133 12.9706 3.31133 12.9706C2.94733 12.0459 2.42333 11.7999 2.42333 11.7999C1.69733 11.3033 2.478 11.3139 2.478 11.3139C3.28133 11.3706 3.704 12.1386 3.704 12.1386C4.41733 13.3613 5.57533 13.0079 6.032 12.8033C6.104 12.2859 6.31133 11.9333 6.54 11.7333C4.76333 11.5313 2.89533 10.8453 2.89533 7.77993C2.89533 6.9066 3.208 6.1926 3.72 5.6326C3.63667 5.4306 3.36267 4.61727 3.79733 3.51527C3.79733 3.51527 4.46933 3.3006 5.998 4.33527C6.636 4.15793 7.32 4.06927 8 4.06593C8.68 4.06927 9.36467 4.15793 10.004 4.33527C11.5307 3.29993 12.202 3.51527 12.202 3.51527C12.6373 4.61727 12.3633 5.4306 12.2807 5.6326C12.7933 6.1926 13.104 6.9066 13.104 7.77993C13.104 10.8526 11.2327 11.5293 9.45133 11.7273C9.738 11.9753 9.994 12.4626 9.994 13.2086C9.994 14.2793 9.98467 15.1406 9.98467 15.4039C9.98467 15.6166 10.1287 15.8666 10.534 15.7879C13.7113 14.7286 16.0007 11.7313 16.0007 8.19793C16 3.77927 12.418 0.197266 8 0.197266Z" fill="#FF305B"/>
<path d="M3.03002 11.6838C3.01269 11.7238 2.95002 11.7358 2.89269 11.7084C2.83469 11.6824 2.80202 11.6278 2.82069 11.5884C2.83802 11.5478 2.90069 11.5364 2.95869 11.5638C3.01669 11.5891 3.05002 11.6438 3.03002 11.6838Z" fill="#FF305B"/>
<path d="M3.3539 12.0454C3.3159 12.0808 3.24123 12.0641 3.19056 12.0088C3.1379 11.9528 3.12856 11.8781 3.16723 11.8428C3.20656 11.8074 3.27856 11.8241 3.33123 11.8801C3.3839 11.9354 3.3939 12.0094 3.3539 12.0454Z" fill="#FF305B"/>
<path d="M3.6696 12.5056C3.62027 12.5396 3.54027 12.5076 3.49094 12.437C3.4416 12.3656 3.4416 12.2803 3.49227 12.2463C3.5416 12.2123 3.62094 12.243 3.67094 12.3136C3.7196 12.3856 3.7196 12.471 3.6696 12.5056Z" fill="#FF305B"/>
<path d="M4.1013 12.9509C4.0573 12.9996 3.96397 12.9862 3.89597 12.9202C3.82597 12.8556 3.80664 12.7642 3.85064 12.7156C3.8953 12.6669 3.9893 12.6809 4.05797 12.7462C4.1273 12.8109 4.14797 12.9029 4.1013 12.9509Z" fill="#FF305B"/>
<path d="M4.69805 13.2095C4.67872 13.2722 4.58872 13.3008 4.49805 13.2742C4.40738 13.2468 4.34805 13.1735 4.36672 13.1102C4.38538 13.0468 4.47605 13.0175 4.56738 13.0462C4.65738 13.0728 4.71672 13.1462 4.69805 13.2095Z" fill="#FF305B"/>
<path d="M5.35279 13.2573C5.35479 13.3233 5.27812 13.378 5.18279 13.3793C5.08746 13.3813 5.00946 13.328 5.00879 13.2633C5.00879 13.1967 5.08412 13.1427 5.17946 13.1407C5.27479 13.1387 5.35279 13.192 5.35279 13.2573Z" fill="#FF305B"/>
<path d="M5.96234 13.1544C5.97367 13.2184 5.90767 13.285 5.81301 13.3024C5.72034 13.3197 5.63434 13.2797 5.62234 13.2157C5.61101 13.1497 5.67834 13.0837 5.77101 13.0664C5.86501 13.0497 5.95034 13.0884 5.96234 13.1544Z" fill="#FF305B"/>
</g>
<defs>
<clipPath id="clip0_402_6224">
<rect width="16" height="16" fill="white"/>
</clipPath>
</defs>
</svg>
