<svg width="16" height="16" viewBox="0 0 16 16" fill="none" xmlns="http://www.w3.org/2000/svg">
<g clip-path="url(#clip0_402_6216)">
<path d="M8.31908 9.51V7.324H15.6851C15.7571 7.70467 15.7944 8.15533 15.7944 8.64333C15.7944 10.2833 15.3464 12.3113 13.9011 13.756C12.4957 15.2193 10.7004 16 8.32175 16C3.91241 16 0.205078 12.4087 0.205078 8C0.205078 3.59133 3.91241 0 8.32175 0C10.7611 0 12.4984 0.957333 13.8037 2.20467L12.2611 3.74667C11.3251 2.86867 10.0564 2.186 8.31908 2.186C5.09975 2.186 2.58174 4.78067 2.58174 8C2.58174 11.2193 5.09975 13.814 8.31908 13.814C10.4071 13.814 11.5964 12.9753 12.3584 12.2133C12.9764 11.5953 13.3831 10.7127 13.5431 9.50733L8.31908 9.51Z" fill="white"/>
</g>
<defs>
<clipPath id="clip0_402_6216">
<rect width="16" height="16" fill="white"/>
</clipPath>
</defs>
</svg>
