<svg width="36" height="36" viewBox="0 0 36 36" fill="none" xmlns="http://www.w3.org/2000/svg">
<g clip-path="url(#clip0_419_6266)">
<path d="M0 13.5V27C0.00238179 28.9884 0.793323 30.8947 2.19933 32.3007C3.60534 33.7067 5.51161 34.4976 7.5 34.5H28.5C30.4884 34.4976 32.3947 33.7067 33.8007 32.3007C35.2067 30.8947 35.9976 28.9884 36 27V13.5H0ZM21 28.5H9C8.60218 28.5 8.22064 28.342 7.93934 28.0607C7.65804 27.7794 7.5 27.3978 7.5 27C7.5 26.6022 7.65804 26.2206 7.93934 25.9393C8.22064 25.658 8.60218 25.5 9 25.5H21C21.3978 25.5 21.7794 25.658 22.0607 25.9393C22.342 26.2206 22.5 26.6022 22.5 27C22.5 27.3978 22.342 27.7794 22.0607 28.0607C21.7794 28.342 21.3978 28.5 21 28.5ZM27 22.5H9C8.60218 22.5 8.22064 22.342 7.93934 22.0607C7.65804 21.7794 7.5 21.3978 7.5 21C7.5 20.6022 7.65804 20.2206 7.93934 19.9393C8.22064 19.658 8.60218 19.5 9 19.5H27C27.3978 19.5 27.7794 19.658 28.0607 19.9393C28.342 20.2206 28.5 20.6022 28.5 21C28.5 21.3978 28.342 21.7794 28.0607 22.0607C27.7794 22.342 27.3978 22.5 27 22.5ZM36 10.5V9C35.9976 7.01161 35.2067 5.10534 33.8007 3.69933C32.3947 2.29332 30.4884 1.50238 28.5 1.5H7.5C5.51161 1.50238 3.60534 2.29332 2.19933 3.69933C0.793323 5.10534 0.00238179 7.01161 0 9L0 10.5H36ZM15 4.5C15.2967 4.5 15.5867 4.58797 15.8334 4.7528C16.08 4.91762 16.2723 5.15189 16.3858 5.42597C16.4994 5.70006 16.5291 6.00166 16.4712 6.29264C16.4133 6.58361 16.2704 6.85088 16.0607 7.06066C15.8509 7.27044 15.5836 7.4133 15.2926 7.47118C15.0017 7.52906 14.7001 7.49935 14.426 7.38582C14.1519 7.27229 13.9176 7.08003 13.7528 6.83336C13.588 6.58668 13.5 6.29667 13.5 6C13.5 5.60218 13.658 5.22064 13.9393 4.93934C14.2206 4.65804 14.6022 4.5 15 4.5ZM10.5 4.5C10.7967 4.5 11.0867 4.58797 11.3334 4.7528C11.58 4.91762 11.7723 5.15189 11.8858 5.42597C11.9994 5.70006 12.0291 6.00166 11.9712 6.29264C11.9133 6.58361 11.7704 6.85088 11.5607 7.06066C11.3509 7.27044 11.0836 7.4133 10.7926 7.47118C10.5017 7.52906 10.2001 7.49935 9.92598 7.38582C9.65189 7.27229 9.41762 7.08003 9.2528 6.83336C9.08797 6.58668 9 6.29667 9 6C9 5.60218 9.15804 5.22064 9.43934 4.93934C9.72064 4.65804 10.1022 4.5 10.5 4.5ZM6 4.5C6.29667 4.5 6.58668 4.58797 6.83336 4.7528C7.08003 4.91762 7.27229 5.15189 7.38582 5.42597C7.49935 5.70006 7.52906 6.00166 7.47118 6.29264C7.4133 6.58361 7.27044 6.85088 7.06066 7.06066C6.85088 7.27044 6.58361 7.4133 6.29264 7.47118C6.00166 7.52906 5.70006 7.49935 5.42597 7.38582C5.15189 7.27229 4.91762 7.08003 4.7528 6.83336C4.58797 6.58668 4.5 6.29667 4.5 6C4.5 5.60218 4.65804 5.22064 4.93934 4.93934C5.22064 4.65804 5.60218 4.5 6 4.5Z" fill="#FF305B"/>
</g>
<defs>
<clipPath id="clip0_419_6266">
<rect width="36" height="36" fill="white"/>
</clipPath>
</defs>
</svg>
