<svg width="16" height="16" viewBox="0 0 16 16" fill="none" xmlns="http://www.w3.org/2000/svg">
<g clip-path="url(#clip0_801_4641)">
<path d="M15.7994 1.14551L3.45947 13.4821C3.72625 13.6121 4.01885 13.6804 4.31561 13.682H6.429C6.6058 13.6815 6.77542 13.7518 6.90006 13.8772L8.04537 15.0218C8.66647 15.6472 9.51124 15.9992 10.3926 15.9999C10.7565 15.9996 11.1179 15.9399 11.4626 15.8234C12.651 15.4338 13.5153 14.4036 13.6926 13.1656L15.9439 2.47205C16.0514 2.02648 16.0003 1.55742 15.7994 1.14551Z" fill="white"/>
<path d="M13.5474 0.0516016L2.87978 2.29894C1.05706 2.54935 -0.217545 4.22996 0.0328667 6.05268C0.131776 6.7725 0.463295 7.44028 0.976924 7.95419L2.12158 9.09885C2.24669 9.22393 2.31693 9.39364 2.31681 9.57056V11.6839C2.31834 11.9807 2.38667 12.2733 2.51669 12.5401L14.8546 0.2002C14.4491 0.000944568 13.9872 -0.0515551 13.5474 0.0516016Z" fill="white"/>
</g>
<defs>
<clipPath id="clip0_801_4641">
<rect width="16" height="16" fill="white"/>
</clipPath>
</defs>
</svg>
