<svg width="36" height="36" viewBox="0 0 36 36" fill="none" xmlns="http://www.w3.org/2000/svg">
<g clip-path="url(#clip0_419_6265)">
<path d="M12.3285 23.6582C10.7685 26.1182 9.30597 27.6917 8.40597 27.6917C8.29347 27.6917 8.06847 27.6917 7.95597 27.5792C7.84347 27.3542 7.73097 27.1292 7.84347 26.9042C7.95597 26.0057 9.75597 24.7682 12.3285 23.6582Z" fill="#FF305B"/>
<path d="M16.6999 13.3409C15.7999 10.8809 15.9124 9.08086 16.2499 8.40586C16.3624 8.18086 16.5874 8.06836 16.8124 8.06836C17.3749 8.06836 17.4874 8.74336 17.4874 9.30586C17.3749 10.6544 17.1499 12.1034 16.6999 13.3409Z" fill="#FF305B"/>
<path d="M17.5992 17.4873C18.1572 18.4923 19.1577 19.6068 19.6122 20.1588C19.4262 20.1423 17.5902 20.5533 16.1367 21.0708C16.6992 20.0598 17.3742 18.1623 17.5992 17.4873Z" fill="#FF305B"/>
<path d="M19.6233 20.1727C19.6203 20.1682 19.6158 20.1637 19.6113 20.1592C19.6293 20.1607 19.6323 20.1652 19.6233 20.1727Z" fill="#FF305B"/>
<path d="M27.1303 21.858C27.0178 22.308 26.4553 22.758 25.4428 22.533C24.2053 22.1955 23.0953 21.633 22.1953 20.8455C22.9828 20.733 24.8803 20.508 26.2288 20.733C26.6803 20.8455 27.2428 21.183 27.1303 21.858Z" fill="#FF305B"/>
<path d="M29.604 0.450195H6.396C2.7975 0.450195 0 3.24769 0 6.83119V29.1542C0 32.7392 2.91 35.5352 6.396 35.5502H29.604C33.2025 35.5502 36 32.6267 36 29.1542V6.8462C36 3.2477 33.075 0.450195 29.604 0.450195ZM29.07 22.5047C28.8585 23.0672 28.296 23.7422 26.7225 23.7422C25.5975 23.7422 23.349 23.4182 20.889 21.1697C18.753 21.5072 16.6305 22.1822 15.2805 22.6322C13.593 25.5572 11.232 28.8032 8.8845 28.8032C8.322 28.8032 7.7595 28.6907 7.3095 28.2407C6.8595 27.9032 6.6345 27.2282 6.747 26.6657C7.0845 24.6407 11.007 22.8557 12.8055 22.1822C14.1405 19.8347 15.2655 16.8122 15.9405 14.7887C14.703 11.9912 14.3655 9.30619 15.153 7.95769C15.4905 7.39519 16.053 7.05769 16.728 7.05769C18.513 7.05769 19.188 8.7302 19.188 10.4177C19.188 12.2177 18.738 14.1152 18.1755 15.8012C18.6255 16.4762 19.7355 18.2612 21.3105 19.8362C22.4205 19.7237 27.018 18.9362 28.704 20.7362C29.154 21.1832 29.3655 21.9707 29.07 22.5047Z" fill="#FF305B"/>
</g>
<defs>
<clipPath id="clip0_419_6265">
<rect width="36" height="36" fill="white"/>
</clipPath>
</defs>
</svg>
