<svg width="16" height="16" viewBox="0 0 16 16" fill="none" xmlns="http://www.w3.org/2000/svg">
<g clip-path="url(#clip0_801_4644)">
<path d="M9.3335 4.67661V0.315944C9.94216 0.546611 10.5022 0.901944 10.9768 1.37594L13.2995 3.69994C13.7742 4.17394 14.1295 4.73394 14.3602 5.34261H10.0002C9.63216 5.34261 9.3335 5.04394 9.3335 4.67661ZM14.6508 6.67661H10.0002C8.8975 6.67661 8.00016 5.77928 8.00016 4.67661V0.0252773C7.89283 0.017944 7.7855 0.00927734 7.67683 0.00927734H4.66683C2.82883 0.00994401 1.3335 1.50528 1.3335 3.34328V12.6766C1.3335 14.5146 2.82883 16.0099 4.66683 16.0099H11.3335C13.1715 16.0099 14.6668 14.5146 14.6668 12.6766V6.99994C14.6668 6.89128 14.6582 6.78395 14.6508 6.67661ZM10.4715 12.3473L9.39616 13.4233C9.0115 13.8079 8.5055 14.0006 8.00016 14.0006C7.49483 14.0006 6.98883 13.8079 6.60416 13.4233L5.52883 12.3473C5.26816 12.0866 5.26816 11.6646 5.52883 11.4046C5.7895 11.1439 6.21083 11.1439 6.4715 11.4046L7.3335 12.2666V9.33461C7.3335 8.96661 7.6315 8.66794 8.00016 8.66794C8.36883 8.66794 8.66683 8.96661 8.66683 9.33461V12.2666L9.52883 11.4046C9.7895 11.1439 10.2108 11.1439 10.4715 11.4046C10.7322 11.6646 10.7322 12.0866 10.4715 12.3473Z" fill="white"/>
</g>
<defs>
<clipPath id="clip0_801_4644">
<rect width="16" height="16" fill="white"/>
</clipPath>
</defs>
</svg>
