<svg width="36" height="36" viewBox="0 0 36 36" fill="none" xmlns="http://www.w3.org/2000/svg">
<g clip-path="url(#clip0_419_6268)">
<path d="M25.965 22.5C31.7325 22.5 34.605 28.5435 35.8755 32.5425C36.4215 34.263 35.094 36 33.2535 36H26.8575C23.2875 36 19.5 32.9775 19.5 29.25C19.5 25.5225 22.395 22.5 25.965 22.5ZM1.758 28.6785C0.633 29.8035 4.47035e-08 31.3305 4.47035e-08 32.9205V36H3.0795C4.671 36 6.1965 35.3685 7.3215 34.242L27.4665 14.097L21.9015 8.532L1.758 28.6785ZM34.848 1.152C33.312 -0.384 30.8205 -0.384 29.283 1.152L24.0225 6.4125L29.5875 11.9775L34.848 6.717C36.384 5.181 36.384 2.6895 34.848 1.152ZM1.152 6.717C-0.384 5.181 -0.384 2.6895 1.152 1.152C2.6895 -0.384 5.181 -0.384 6.717 1.152L15.5655 10.6275L10.0005 16.1925L1.152 6.717Z" fill="#FF305B"/>
</g>
<defs>
<clipPath id="clip0_419_6268">
<rect width="36" height="36" fill="white"/>
</clipPath>
</defs>
</svg>
