<svg width="36" height="36" viewBox="0 0 36 36" fill="none" xmlns="http://www.w3.org/2000/svg">
<g clip-path="url(#clip0_419_6264)">
<path d="M10.7008 16.6207C10.1548 16.0207 9.33576 16.0747 8.95476 16.7842L0.110758 34.4707C-0.216242 35.1802 0.274258 35.9992 1.03926 35.9992H13.3213C13.7038 35.9992 14.0848 35.7802 14.2498 35.3992C16.9243 29.9407 15.3403 21.5887 10.7008 16.6207Z" fill="#FF305B"/>
<path d="M17.1433 0.572625C12.2308 8.37862 12.5578 17.0576 15.7783 23.5541C19.0528 30.0506 21.5098 35.0726 21.7288 35.3996C21.8923 35.7821 22.2748 35.9996 22.6573 35.9996H34.9393C35.7028 35.9996 36.2488 35.1806 35.8678 34.4711C35.8678 34.4711 19.3273 1.39162 18.8908 0.572625C18.5623 -0.190875 17.6338 -0.190875 17.1433 0.572625Z" fill="#FF305B"/>
</g>
<defs>
<clipPath id="clip0_419_6264">
<rect width="36" height="36" fill="white"/>
</clipPath>
</defs>
</svg>
