<svg width="615" height="148" viewBox="0 0 615 148" fill="none" xmlns="http://www.w3.org/2000/svg">
<path d="M35.4736 11.8402C34.7047 11.8525 33.9707 12.1635 33.4271 12.7074L9.74707 36.3874C9.19196 36.9424 8.88003 37.6952 8.87988 38.4802V106.56C8.88003 107.345 9.19196 108.098 9.74707 108.653L39.3471 138.253C39.7611 138.667 40.2885 138.948 40.8625 139.063C41.4366 139.177 42.0316 139.118 42.5724 138.894C43.1131 138.67 43.5754 138.291 43.9006 137.804C44.2259 137.318 44.3997 136.745 44.3999 136.16V75.2258L71.9071 102.733C72.4622 103.288 73.215 103.6 73.9999 103.6C74.7848 103.6 75.5376 103.288 76.0927 102.733L103.6 75.2258V136.16C103.6 136.745 103.774 137.318 104.099 137.804C104.424 138.291 104.887 138.67 105.427 138.894C105.968 139.118 106.563 139.177 107.137 139.063C107.711 138.948 108.239 138.667 108.653 138.253L138.253 108.653C138.808 108.098 139.12 107.345 139.12 106.56V38.4802C139.12 37.6952 138.808 36.9424 138.253 36.3874L114.573 12.7074C114.018 12.1525 113.265 11.8408 112.48 11.8408C111.695 11.8408 110.942 12.1525 110.387 12.7074L73.9999 49.0946L37.6127 12.7074C37.3324 12.4269 36.9986 12.2057 36.6312 12.0567C36.2637 11.9078 35.8701 11.8341 35.4736 11.8402ZM35.5199 18.9858L71.0399 54.5058V93.4946L16.0255 38.4802L35.5199 18.9858ZM112.48 18.9858L131.974 38.4802L76.9599 93.4946V54.5058L112.48 18.9858ZM14.7999 45.6258L38.4799 69.3058V129.015L14.7999 105.335V45.6258ZM133.2 45.6258V105.335L109.52 129.015V69.3058L133.2 45.6258Z" fill="#FF305B"/>
<path d="M198.684 61L191.809 38.5977H191.633C191.88 43.1549 192.004 46.1953 192.004 47.7188V61H186.594V32.4453H194.836L201.594 54.2812H201.711L208.879 32.4453H217.121V61H211.477V47.4844C211.477 46.8464 211.483 46.1107 211.496 45.2773C211.522 44.444 211.613 42.2305 211.77 38.6367H211.594L204.23 61H198.684ZM237.805 50.043C237.805 52.2044 238.157 53.8385 238.86 54.9453C239.576 56.0521 240.735 56.6055 242.337 56.6055C243.925 56.6055 245.065 56.0586 245.755 54.9648C246.458 53.8581 246.809 52.2174 246.809 50.043C246.809 47.8815 246.458 46.2604 245.755 45.1797C245.052 44.099 243.899 43.5586 242.298 43.5586C240.709 43.5586 239.563 44.099 238.86 45.1797C238.157 46.2474 237.805 47.8685 237.805 50.043ZM252.903 50.043C252.903 53.5977 251.966 56.3776 250.091 58.3828C248.216 60.388 245.605 61.3906 242.259 61.3906C240.162 61.3906 238.313 60.9349 236.712 60.0234C235.11 59.099 233.88 57.7773 233.02 56.0586C232.161 54.3398 231.731 52.3346 231.731 50.043C231.731 46.4753 232.662 43.7018 234.524 41.7227C236.386 39.7435 239.003 38.7539 242.376 38.7539C244.472 38.7539 246.321 39.2096 247.923 40.1211C249.524 41.0326 250.755 42.3411 251.614 44.0469C252.473 45.7526 252.903 47.7513 252.903 50.043ZM287.181 61H281.224V48.2461C281.224 45.0951 280.052 43.5195 277.709 43.5195C276.042 43.5195 274.838 44.0859 274.095 45.2188C273.353 46.3516 272.982 48.1875 272.982 50.7266V61H267.025V30.6094H272.982V36.8008C272.982 37.2826 272.936 38.4154 272.845 40.1992L272.709 41.957H273.021C274.349 39.8216 276.459 38.7539 279.349 38.7539C281.914 38.7539 283.861 39.444 285.189 40.8242C286.517 42.2044 287.181 44.1836 287.181 46.7617V61ZM316.381 61L315.229 58.0312H315.073C314.07 59.2943 313.035 60.1732 311.967 60.668C310.912 61.1497 309.532 61.3906 307.827 61.3906C305.73 61.3906 304.077 60.7917 302.866 59.5938C301.668 58.3958 301.069 56.6901 301.069 54.4766C301.069 52.1589 301.876 50.4531 303.491 49.3594C305.118 48.2526 307.566 47.6406 310.834 47.5234L314.623 47.4062V46.4492C314.623 44.2357 313.491 43.1289 311.225 43.1289C309.48 43.1289 307.429 43.6562 305.073 44.7109L303.1 40.6875C305.613 39.3724 308.399 38.7148 311.459 38.7148C314.389 38.7148 316.635 39.3529 318.198 40.6289C319.76 41.9049 320.541 43.8451 320.541 46.4492V61H316.381ZM314.623 50.8828L312.319 50.9609C310.587 51.013 309.298 51.3255 308.452 51.8984C307.605 52.4714 307.182 53.3438 307.182 54.5156C307.182 56.1953 308.146 57.0352 310.073 57.0352C311.453 57.0352 312.553 56.638 313.373 55.8438C314.207 55.0495 314.623 53.9948 314.623 52.6797V50.8828ZM355.445 61H349.488V48.2461C349.488 46.6706 349.221 45.4922 348.687 44.7109C348.166 43.9167 347.339 43.5195 346.206 43.5195C344.683 43.5195 343.576 44.0794 342.886 45.1992C342.196 46.319 341.851 48.1615 341.851 50.7266V61H335.894V39.1641H340.445L341.245 41.957H341.577C342.163 40.9544 343.01 40.1732 344.116 39.6133C345.223 39.0404 346.493 38.7539 347.925 38.7539C351.193 38.7539 353.407 39.8216 354.566 41.957H355.093C355.679 40.9414 356.538 40.1536 357.671 39.5938C358.817 39.0339 360.106 38.7539 361.538 38.7539C364.012 38.7539 365.881 39.3919 367.144 40.668C368.42 41.931 369.058 43.9622 369.058 46.7617V61H363.081V48.2461C363.081 46.6706 362.814 45.4922 362.28 44.7109C361.76 43.9167 360.933 43.5195 359.8 43.5195C358.342 43.5195 357.248 44.0404 356.519 45.082C355.803 46.1237 355.445 47.7773 355.445 50.043V61ZM393.434 42.9922C392.171 42.9922 391.181 43.3958 390.465 44.2031C389.749 44.9974 389.339 46.1302 389.234 47.6016H397.594C397.568 46.1302 397.184 44.9974 396.441 44.2031C395.699 43.3958 394.697 42.9922 393.434 42.9922ZM394.273 61.3906C390.758 61.3906 388.01 60.4206 386.031 58.4805C384.052 56.5404 383.062 53.793 383.062 50.2383C383.062 46.5794 383.974 43.7539 385.797 41.7617C387.633 39.7565 390.165 38.7539 393.395 38.7539C396.48 38.7539 398.883 39.6328 400.602 41.3906C402.32 43.1484 403.18 45.5768 403.18 48.6758V51.5664H389.098C389.163 53.2591 389.664 54.5807 390.602 55.5312C391.539 56.4818 392.854 56.957 394.547 56.957C395.862 56.957 397.105 56.8203 398.277 56.5469C399.449 56.2734 400.673 55.8372 401.949 55.2383V59.8477C400.908 60.3685 399.794 60.7526 398.609 61C397.424 61.2604 395.979 61.3906 394.273 61.3906ZM424.137 61.3906C421.572 61.3906 419.554 60.3945 418.083 58.4023C416.624 56.4102 415.895 53.6497 415.895 50.1211C415.895 46.5404 416.637 43.7539 418.122 41.7617C419.619 39.7565 421.677 38.7539 424.294 38.7539C427.041 38.7539 429.137 39.8216 430.583 41.957H430.778C430.479 40.3294 430.329 38.8776 430.329 37.6016V30.6094H436.305V61H431.735L430.583 58.168H430.329C428.975 60.3164 426.911 61.3906 424.137 61.3906ZM426.227 56.6445C427.751 56.6445 428.864 56.2018 429.567 55.3164C430.283 54.431 430.674 52.9271 430.739 50.8047V50.1602C430.739 47.8164 430.374 46.1367 429.645 45.1211C428.929 44.1055 427.757 43.5977 426.13 43.5977C424.802 43.5977 423.766 44.1641 423.024 45.2969C422.295 46.4167 421.93 48.0508 421.93 50.1992C421.93 52.3477 422.302 53.9622 423.044 55.043C423.786 56.1107 424.847 56.6445 426.227 56.6445ZM482.811 61H476.756V37.4844H469.002V32.4453H490.565V37.4844H482.811V61ZM508.437 50.043C508.437 52.2044 508.788 53.8385 509.491 54.9453C510.208 56.0521 511.366 56.6055 512.968 56.6055C514.556 56.6055 515.696 56.0586 516.386 54.9648C517.089 53.8581 517.441 52.2174 517.441 50.043C517.441 47.8815 517.089 46.2604 516.386 45.1797C515.683 44.099 514.53 43.5586 512.929 43.5586C511.34 43.5586 510.195 44.099 509.491 45.1797C508.788 46.2474 508.437 47.8685 508.437 50.043ZM523.534 50.043C523.534 53.5977 522.597 56.3776 520.722 58.3828C518.847 60.388 516.236 61.3906 512.89 61.3906C510.793 61.3906 508.945 60.9349 507.343 60.0234C505.741 59.099 504.511 57.7773 503.652 56.0586C502.792 54.3398 502.362 52.3346 502.362 50.043C502.362 46.4753 503.293 43.7018 505.155 41.7227C507.017 39.7435 509.635 38.7539 513.007 38.7539C515.103 38.7539 516.952 39.2096 518.554 40.1211C520.155 41.0326 521.386 42.3411 522.245 44.0469C523.105 45.7526 523.534 47.7513 523.534 50.043ZM543.613 61H537.656V30.6094H543.613V61ZM571.231 38.7539C573.809 38.7539 575.828 39.763 577.286 41.7812C578.744 43.7865 579.473 46.5404 579.473 50.043C579.473 53.6497 578.718 56.4427 577.208 58.4219C575.71 60.401 573.666 61.3906 571.075 61.3906C568.51 61.3906 566.498 60.4596 565.04 58.5977H564.63L563.634 61H559.083V30.6094H565.04V37.6797C565.04 38.5781 564.962 40.0169 564.805 41.9961H565.04C566.433 39.8346 568.497 38.7539 571.231 38.7539ZM569.317 43.5195C567.846 43.5195 566.772 43.9753 566.095 44.8867C565.417 45.7852 565.066 47.276 565.04 49.3594V50.0039C565.04 52.3477 565.385 54.0273 566.075 55.043C566.778 56.0586 567.885 56.5664 569.395 56.5664C570.619 56.5664 571.589 56.0065 572.305 54.8867C573.035 53.7539 573.399 52.1133 573.399 49.9648C573.399 47.8164 573.035 46.2083 572.305 45.1406C571.576 44.0599 570.58 43.5195 569.317 43.5195ZM607.462 61L606.31 58.0312H606.154C605.151 59.2943 604.116 60.1732 603.048 60.668C601.994 61.1497 600.614 61.3906 598.908 61.3906C596.811 61.3906 595.158 60.7917 593.947 59.5938C592.749 58.3958 592.15 56.6901 592.15 54.4766C592.15 52.1589 592.957 50.4531 594.572 49.3594C596.199 48.2526 598.647 47.6406 601.916 47.5234L605.705 47.4062V46.4492C605.705 44.2357 604.572 43.1289 602.306 43.1289C600.561 43.1289 598.511 43.6562 596.154 44.7109L594.181 40.6875C596.694 39.3724 599.481 38.7148 602.541 38.7148C605.47 38.7148 607.716 39.3529 609.279 40.6289C610.841 41.9049 611.623 43.8451 611.623 46.4492V61H607.462ZM605.705 50.8828L603.4 50.9609C601.668 51.013 600.379 51.3255 599.533 51.8984C598.686 52.4714 598.263 53.3438 598.263 54.5156C598.263 56.1953 599.227 57.0352 601.154 57.0352C602.534 57.0352 603.634 56.638 604.455 55.8438C605.288 55.0495 605.705 53.9948 605.705 52.6797V50.8828Z" fill="white"/>
<path d="M211.848 120H208.566L202.805 100.879C202.531 100.033 202.225 98.9648 201.887 97.6758C201.548 96.3867 201.372 95.612 201.359 95.3516C201.073 97.0703 200.617 98.9518 199.992 100.996L194.406 120H191.125L183.527 91.4453H187.043L191.555 109.082C192.18 111.556 192.635 113.796 192.922 115.801C193.273 113.418 193.794 111.087 194.484 108.809L199.602 91.4453H203.117L208.488 108.965C209.113 110.983 209.641 113.262 210.07 115.801C210.318 113.952 210.786 111.699 211.477 109.043L215.969 91.4453H219.484L211.848 120ZM242.312 120.391C239.148 120.391 236.648 119.427 234.812 117.5C232.989 115.573 232.077 112.897 232.077 109.473C232.077 106.022 232.924 103.281 234.616 101.25C236.322 99.2188 238.607 98.2031 241.472 98.2031C244.154 98.2031 246.277 99.0885 247.839 100.859C249.402 102.617 250.183 104.941 250.183 107.832V109.883H235.437C235.502 112.396 236.133 114.303 237.331 115.605C238.542 116.908 240.241 117.559 242.429 117.559C244.734 117.559 247.012 117.077 249.265 116.113V119.004C248.119 119.499 247.032 119.85 246.003 120.059C244.987 120.28 243.757 120.391 242.312 120.391ZM241.433 100.918C239.714 100.918 238.34 101.478 237.312 102.598C236.296 103.717 235.697 105.267 235.515 107.246H246.706C246.706 105.202 246.251 103.639 245.339 102.559C244.428 101.465 243.126 100.918 241.433 100.918ZM275.491 98.2422C278.303 98.2422 280.484 99.2057 282.034 101.133C283.596 103.047 284.377 105.762 284.377 109.277C284.377 112.793 283.59 115.527 282.014 117.48C280.452 119.421 278.277 120.391 275.491 120.391C274.097 120.391 272.821 120.137 271.662 119.629C270.517 119.108 269.553 118.314 268.772 117.246H268.537L267.854 120H265.53V89.6094H268.772V96.9922C268.772 98.6458 268.72 100.13 268.616 101.445H268.772C270.282 99.3099 272.522 98.2422 275.491 98.2422ZM275.022 100.957C272.808 100.957 271.213 101.595 270.237 102.871C269.26 104.134 268.772 106.27 268.772 109.277C268.772 112.285 269.273 114.44 270.276 115.742C271.278 117.031 272.886 117.676 275.1 117.676C277.092 117.676 278.577 116.953 279.553 115.508C280.53 114.049 281.018 111.96 281.018 109.238C281.018 106.452 280.53 104.375 279.553 103.008C278.577 101.641 277.066 100.957 275.022 100.957ZM334.622 117.129H334.446C332.949 119.303 330.709 120.391 327.727 120.391C324.928 120.391 322.747 119.434 321.184 117.52C319.635 115.605 318.86 112.884 318.86 109.355C318.86 105.827 319.641 103.086 321.204 101.133C322.766 99.1797 324.941 98.2031 327.727 98.2031C330.631 98.2031 332.858 99.2578 334.407 101.367H334.661L334.524 99.8242L334.446 98.3203V89.6094H337.688V120H335.052L334.622 117.129ZM328.137 117.676C330.351 117.676 331.953 117.077 332.942 115.879C333.945 114.668 334.446 112.721 334.446 110.039V109.355C334.446 106.322 333.938 104.16 332.923 102.871C331.92 101.569 330.312 100.918 328.098 100.918C326.197 100.918 324.739 101.66 323.723 103.145C322.721 104.616 322.22 106.699 322.22 109.395C322.22 112.129 322.721 114.193 323.723 115.586C324.726 116.979 326.197 117.676 328.137 117.676ZM363.426 120.391C360.262 120.391 357.762 119.427 355.926 117.5C354.103 115.573 353.191 112.897 353.191 109.473C353.191 106.022 354.038 103.281 355.73 101.25C357.436 99.2188 359.721 98.2031 362.586 98.2031C365.268 98.2031 367.391 99.0885 368.953 100.859C370.516 102.617 371.297 104.941 371.297 107.832V109.883H356.551C356.616 112.396 357.247 114.303 358.445 115.605C359.656 116.908 361.355 117.559 363.543 117.559C365.848 117.559 368.126 117.077 370.379 116.113V119.004C369.233 119.499 368.146 119.85 367.117 120.059C366.102 120.28 364.871 120.391 363.426 120.391ZM362.547 100.918C360.828 100.918 359.454 101.478 358.426 102.598C357.41 103.717 356.811 105.267 356.629 107.246H367.82C367.82 105.202 367.365 103.639 366.453 102.559C365.542 101.465 364.24 100.918 362.547 100.918ZM400.452 114.16C400.452 116.152 399.71 117.689 398.226 118.77C396.741 119.85 394.658 120.391 391.976 120.391C389.137 120.391 386.924 119.941 385.335 119.043V116.035C386.364 116.556 387.464 116.966 388.636 117.266C389.821 117.565 390.96 117.715 392.054 117.715C393.747 117.715 395.049 117.448 395.96 116.914C396.872 116.367 397.327 115.54 397.327 114.434C397.327 113.6 396.963 112.891 396.234 112.305C395.517 111.706 394.111 111.003 392.015 110.195C390.023 109.453 388.603 108.809 387.757 108.262C386.924 107.702 386.299 107.07 385.882 106.367C385.478 105.664 385.277 104.824 385.277 103.848C385.277 102.103 385.986 100.729 387.405 99.7266C388.825 98.7109 390.771 98.2031 393.245 98.2031C395.55 98.2031 397.803 98.6719 400.003 99.6094L398.851 102.246C396.702 101.361 394.756 100.918 393.011 100.918C391.474 100.918 390.316 101.159 389.534 101.641C388.753 102.122 388.363 102.786 388.363 103.633C388.363 104.206 388.506 104.694 388.792 105.098C389.092 105.501 389.567 105.885 390.218 106.25C390.869 106.615 392.119 107.142 393.968 107.832C396.507 108.757 398.219 109.688 399.105 110.625C400.003 111.562 400.452 112.741 400.452 114.16ZM418.788 120H415.545V98.5938H418.788V120ZM415.272 92.793C415.272 92.0508 415.454 91.5104 415.819 91.1719C416.183 90.8203 416.639 90.6445 417.186 90.6445C417.707 90.6445 418.156 90.8203 418.534 91.1719C418.911 91.5234 419.1 92.0638 419.1 92.793C419.1 93.5221 418.911 94.069 418.534 94.4336C418.156 94.7852 417.707 94.9609 417.186 94.9609C416.639 94.9609 416.183 94.7852 415.819 94.4336C415.454 94.069 415.272 93.5221 415.272 92.793ZM452.982 98.5938V100.645L449.017 101.113C449.382 101.569 449.707 102.168 449.994 102.91C450.28 103.639 450.423 104.466 450.423 105.391C450.423 107.487 449.707 109.16 448.275 110.41C446.843 111.66 444.877 112.285 442.377 112.285C441.739 112.285 441.14 112.233 440.58 112.129C439.199 112.858 438.509 113.776 438.509 114.883C438.509 115.469 438.75 115.905 439.232 116.191C439.714 116.465 440.541 116.602 441.712 116.602H445.502C447.819 116.602 449.597 117.09 450.834 118.066C452.084 119.043 452.709 120.462 452.709 122.324C452.709 124.694 451.758 126.497 449.857 127.734C447.956 128.984 445.183 129.609 441.537 129.609C438.737 129.609 436.576 129.089 435.052 128.047C433.542 127.005 432.787 125.534 432.787 123.633C432.787 122.331 433.203 121.204 434.037 120.254C434.87 119.303 436.042 118.659 437.552 118.32C437.005 118.073 436.543 117.689 436.166 117.168C435.801 116.647 435.619 116.042 435.619 115.352C435.619 114.57 435.827 113.887 436.244 113.301C436.66 112.715 437.318 112.148 438.216 111.602C437.11 111.146 436.205 110.371 435.502 109.277C434.811 108.184 434.466 106.934 434.466 105.527C434.466 103.184 435.17 101.38 436.576 100.117C437.982 98.8411 439.974 98.2031 442.552 98.2031C443.672 98.2031 444.681 98.3333 445.58 98.5938H452.982ZM435.912 123.594C435.912 124.753 436.4 125.632 437.377 126.23C438.353 126.829 439.753 127.129 441.576 127.129C444.297 127.129 446.309 126.719 447.611 125.898C448.926 125.091 449.584 123.991 449.584 122.598C449.584 121.439 449.226 120.632 448.509 120.176C447.793 119.733 446.446 119.512 444.466 119.512H440.58C439.108 119.512 437.962 119.863 437.142 120.566C436.322 121.27 435.912 122.279 435.912 123.594ZM437.67 105.449C437.67 106.947 438.093 108.079 438.939 108.848C439.785 109.616 440.964 110 442.474 110C445.638 110 447.22 108.464 447.22 105.391C447.22 102.174 445.619 100.566 442.416 100.566C440.892 100.566 439.72 100.977 438.9 101.797C438.08 102.617 437.67 103.835 437.67 105.449ZM481.825 120V106.152C481.825 104.408 481.428 103.105 480.634 102.246C479.839 101.387 478.596 100.957 476.903 100.957C474.664 100.957 473.023 101.562 471.981 102.773C470.94 103.984 470.419 105.983 470.419 108.77V120H467.177V98.5938H469.813L470.341 101.523H470.497C471.161 100.469 472.092 99.6549 473.29 99.082C474.488 98.4961 475.822 98.2031 477.294 98.2031C479.872 98.2031 481.812 98.8281 483.114 100.078C484.416 101.315 485.067 103.301 485.067 106.035V120H481.825ZM510.59 120.391C507.426 120.391 504.926 119.427 503.09 117.5C501.267 115.573 500.355 112.897 500.355 109.473C500.355 106.022 501.202 103.281 502.895 101.25C504.6 99.2188 506.885 98.2031 509.75 98.2031C512.432 98.2031 514.555 99.0885 516.117 100.859C517.68 102.617 518.461 104.941 518.461 107.832V109.883H503.715C503.78 112.396 504.411 114.303 505.609 115.605C506.82 116.908 508.52 117.559 510.707 117.559C513.012 117.559 515.29 117.077 517.543 116.113V119.004C516.397 119.499 515.31 119.85 514.281 120.059C513.266 120.28 512.035 120.391 510.59 120.391ZM509.711 100.918C507.992 100.918 506.618 101.478 505.59 102.598C504.574 103.717 503.975 105.267 503.793 107.246H514.984C514.984 105.202 514.529 103.639 513.617 102.559C512.706 101.465 511.404 100.918 509.711 100.918ZM543.573 98.2031C544.524 98.2031 545.377 98.2812 546.132 98.4375L545.683 101.445C544.797 101.25 544.016 101.152 543.339 101.152C541.607 101.152 540.123 101.855 538.886 103.262C537.662 104.668 537.05 106.419 537.05 108.516V120H533.808V98.5938H536.484L536.855 102.559H537.011C537.805 101.165 538.762 100.091 539.882 99.3359C541.002 98.5807 542.232 98.2031 543.573 98.2031Z" fill="white"/>
</svg>
