<svg width="168" height="24" viewBox="0 0 168 24" fill="none" xmlns="http://www.w3.org/2000/svg">
<g clip-path="url(#clip0_628_7100)">
<path d="M61.0242 9.20541C60.8566 8.71944 60.3995 8.37538 59.8607 8.32942L52.5127 7.70044L49.6088 1.29017C49.3944 0.819219 48.9065 0.515259 48.3635 0.515259C47.8205 0.515259 47.3325 0.819219 47.1195 1.29017L44.2155 7.70044L36.8663 8.32942C36.3276 8.37629 35.8714 8.72035 35.7029 9.20541C35.5353 9.69138 35.69 10.2244 36.0975 10.5613L41.652 15.1535L40.0142 21.9545C39.8944 22.4546 40.1003 22.9717 40.5403 23.2716C40.7769 23.4337 41.0548 23.5146 41.3337 23.5146C41.5733 23.5146 41.8132 23.4545 42.0274 23.3337L48.3635 19.7616L54.6985 23.3337C55.1633 23.5955 55.7476 23.5716 56.1867 23.2716C56.6268 22.9717 56.8327 22.4546 56.7128 21.9545L55.0751 15.1535L60.6296 10.5613C61.0368 10.2244 61.1918 9.69248 61.0242 9.20541V9.20541Z" fill="#FFC02D"/>
</g>
<g clip-path="url(#clip1_628_7100)">
<path d="M132.297 9.20541C132.13 8.71944 131.672 8.37538 131.134 8.32942L123.786 7.70044L120.882 1.29017C120.667 0.819219 120.179 0.515259 119.636 0.515259C119.093 0.515259 118.605 0.819219 118.392 1.29017L115.488 7.70044L108.139 8.32942C107.601 8.37629 107.144 8.72035 106.976 9.20541C106.808 9.69138 106.963 10.2244 107.37 10.5613L112.925 15.1535L111.287 21.9545C111.167 22.4546 111.373 22.9717 111.813 23.2716C112.05 23.4337 112.328 23.5146 112.607 23.5146C112.846 23.5146 113.086 23.4545 113.3 23.3337L119.636 19.7616L125.971 23.3337C126.436 23.5955 127.021 23.5716 127.46 23.2716C127.9 22.9717 128.106 22.4546 127.986 21.9545L126.348 15.1535L131.903 10.5613C132.31 10.2244 132.465 9.69248 132.297 9.20541V9.20541Z" fill="#FFC02D"/>
</g>
<g clip-path="url(#clip2_628_7100)">
<path d="M167.933 9.20541C167.766 8.71944 167.309 8.37538 166.77 8.32942L159.422 7.70044L156.518 1.29017C156.304 0.819219 155.816 0.515259 155.273 0.515259C154.73 0.515259 154.242 0.819219 154.029 1.29017L151.125 7.70044L143.776 8.32942C143.237 8.37629 142.781 8.72035 142.612 9.20541C142.444 9.69138 142.599 10.2244 143.007 10.5613L148.561 15.1535L146.923 21.9545C146.804 22.4546 147.009 22.9717 147.45 23.2716C147.686 23.4337 147.964 23.5146 148.243 23.5146C148.482 23.5146 148.722 23.4545 148.937 23.3337L155.273 19.7616L161.608 23.3337C162.072 23.5955 162.657 23.5716 163.096 23.2716C163.536 22.9717 163.742 22.4546 163.622 21.9545L161.984 15.1535L167.539 10.5613C167.946 10.2244 168.101 9.69248 167.933 9.20541V9.20541Z" fill="#FFC02D"/>
</g>
<g clip-path="url(#clip3_628_7100)">
<path d="M25.388 9.20541C25.2204 8.71944 24.7632 8.37538 24.2245 8.32942L16.8765 7.70044L13.9726 1.29017C13.7582 0.819219 13.2703 0.515259 12.7273 0.515259C12.1843 0.515259 11.6963 0.819219 11.4832 1.29017L8.57926 7.70044L1.23012 8.32942C0.691389 8.37629 0.235199 8.72035 0.0666281 9.20541C-0.100972 9.69138 0.0538104 10.2244 0.461255 10.5613L6.01574 15.1535L4.378 21.9545C4.25818 22.4546 4.46404 22.9717 4.90411 23.2716C5.14065 23.4337 5.41856 23.5146 5.69744 23.5146C5.93709 23.5146 6.17693 23.4545 6.39114 23.3337L12.7273 19.7616L19.0623 23.3337C19.527 23.5955 20.1114 23.5716 20.5505 23.2716C20.9906 22.9717 21.1964 22.4546 21.0766 21.9545L19.4389 15.1535L24.9934 10.5613C25.4006 10.2244 25.5556 9.69248 25.388 9.20541V9.20541Z" fill="#FFC02D"/>
</g>
<g clip-path="url(#clip4_628_7100)">
<path d="M96.6604 9.20541C96.4928 8.71944 96.0357 8.37538 95.497 8.32942L88.149 7.70044L85.245 1.29017C85.0306 0.819219 84.5428 0.515259 83.9998 0.515259C83.4568 0.515259 82.9687 0.819219 82.7557 1.29017L79.8517 7.70044L72.5026 8.32942C71.9638 8.37629 71.5077 8.72035 71.3391 9.20541C71.1715 9.69138 71.3263 10.2244 71.7337 10.5613L77.2882 15.1535L75.6505 21.9545C75.5306 22.4546 75.7365 22.9717 76.1766 23.2716C76.4131 23.4337 76.691 23.5146 76.9699 23.5146C77.2095 23.5146 77.4494 23.4545 77.6636 23.3337L83.9998 19.7616L90.3348 23.3337C90.7995 23.5955 91.3839 23.5716 91.823 23.2716C92.263 22.9717 92.4689 22.4546 92.3491 21.9545L90.7113 15.1535L96.2658 10.5613C96.6731 10.2244 96.828 9.69248 96.6604 9.20541V9.20541Z" fill="#FFC02D"/>
</g>
<defs>
<clipPath id="clip0_628_7100">
<rect width="25.4545" height="24" fill="white" transform="translate(35.6362)"/>
</clipPath>
<clipPath id="clip1_628_7100">
<rect width="25.4545" height="24" fill="white" transform="translate(106.909)"/>
</clipPath>
<clipPath id="clip2_628_7100">
<rect width="25.4545" height="24" fill="white" transform="translate(142.545)"/>
</clipPath>
<clipPath id="clip3_628_7100">
<rect width="25.4545" height="24" fill="white"/>
</clipPath>
<clipPath id="clip4_628_7100">
<rect width="25.4545" height="24" fill="white" transform="translate(71.2725)"/>
</clipPath>
</defs>
</svg>
